<svg width="617" height="50" viewBox="0 0 617 50" fill="none" xmlns="http://www.w3.org/2000/svg">
<rect x="0.5" y="0.5" width="616" height="49" rx="9.5" fill="white"/>
<rect x="0.5" y="0.5" width="616" height="49" rx="9.5" stroke="#FF5959"/>
<path d="M29.496 30.5V26.34L29.768 27.076L25.016 19.3H26.28L30.456 26.132H29.784L33.96 19.3H35.144L30.392 27.076L30.664 26.34V30.5H29.496ZM39.2111 30.58C38.4005 30.58 37.6698 30.3987 37.0191 30.036C36.3791 29.6627 35.8725 29.156 35.4991 28.516C35.1258 27.8653 34.9391 27.124 34.9391 26.292C34.9391 25.4493 35.1258 24.708 35.4991 24.068C35.8725 23.428 36.3791 22.9267 37.0191 22.564C37.6591 22.2013 38.3898 22.02 39.2111 22.02C40.0431 22.02 40.7791 22.2013 41.4191 22.564C42.0698 22.9267 42.5765 23.428 42.9391 24.068C43.3125 24.708 43.4991 25.4493 43.4991 26.292C43.4991 27.124 43.3125 27.8653 42.9391 28.516C42.5765 29.156 42.0698 29.6627 41.4191 30.036C40.7685 30.3987 40.0325 30.58 39.2111 30.58ZM39.2111 29.572C39.8191 29.572 40.3578 29.4387 40.8271 29.172C41.2965 28.8947 41.6645 28.5107 41.9311 28.02C42.2085 27.5187 42.3471 26.9427 42.3471 26.292C42.3471 25.6307 42.2085 25.0547 41.9311 24.564C41.6645 24.0733 41.2965 23.6947 40.8271 23.428C40.3578 23.1507 39.8245 23.012 39.2271 23.012C38.6298 23.012 38.0965 23.1507 37.6271 23.428C37.1578 23.6947 36.7845 24.0733 36.5071 24.564C36.2298 25.0547 36.0911 25.6307 36.0911 26.292C36.0911 26.9427 36.2298 27.5187 36.5071 28.02C36.7845 28.5107 37.1578 28.8947 37.6271 29.172C38.0965 29.4387 38.6245 29.572 39.2111 29.572ZM49.2904 30.58C48.5757 30.58 47.9517 30.4467 47.4184 30.18C46.885 29.9133 46.469 29.5133 46.1704 28.98C45.8824 28.4467 45.7384 27.78 45.7384 26.98V22.1H46.8744V26.852C46.8744 27.748 47.093 28.4253 47.5304 28.884C47.9784 29.332 48.6024 29.556 49.4024 29.556C49.989 29.556 50.4957 29.4387 50.9224 29.204C51.3597 28.9587 51.6904 28.6067 51.9144 28.148C52.149 27.6893 52.2664 27.14 52.2664 26.5V22.1H53.4024V30.5H52.3144V28.196L52.4904 28.612C52.2237 29.2307 51.8077 29.716 51.2424 30.068C50.6877 30.4093 50.037 30.58 49.2904 30.58ZM56.5684 30.5V22.1H57.6564V24.388L57.5444 23.988C57.779 23.348 58.1737 22.8627 58.7284 22.532C59.283 22.1907 59.971 22.02 60.7924 22.02V23.124C60.7497 23.124 60.707 23.124 60.6644 23.124C60.6217 23.1133 60.579 23.108 60.5364 23.108C59.651 23.108 58.9577 23.38 58.4564 23.924C57.955 24.4573 57.7044 25.22 57.7044 26.212V30.5H56.5684ZM71.4658 22.02C72.1484 22.02 72.7458 22.1533 73.2578 22.42C73.7804 22.676 74.1858 23.0707 74.4738 23.604C74.7724 24.1373 74.9218 24.8093 74.9218 25.62V30.5H73.7858V25.732C73.7858 24.8467 73.5618 24.18 73.1138 23.732C72.6764 23.2733 72.0578 23.044 71.2578 23.044C70.6604 23.044 70.1378 23.1667 69.6898 23.412C69.2524 23.6467 68.9111 23.9933 68.6658 24.452C68.4311 24.9 68.3138 25.444 68.3138 26.084V30.5H67.1778V22.1H68.2658V24.404L68.0898 23.972C68.3564 23.364 68.7831 22.8893 69.3698 22.548C69.9564 22.196 70.6551 22.02 71.4658 22.02ZM83.2543 30.5V28.644L83.2063 28.34V25.236C83.2063 24.5213 83.0036 23.972 82.5983 23.588C82.2036 23.204 81.6116 23.012 80.8223 23.012C80.2783 23.012 79.7609 23.1027 79.2703 23.284C78.7796 23.4653 78.3636 23.7053 78.0223 24.004L77.5103 23.156C77.9369 22.7933 78.4489 22.516 79.0463 22.324C79.6436 22.1213 80.2729 22.02 80.9343 22.02C82.0223 22.02 82.8596 22.292 83.4463 22.836C84.0436 23.3693 84.3423 24.1853 84.3423 25.284V30.5H83.2543ZM80.3583 30.58C79.7289 30.58 79.1796 30.4787 78.7103 30.276C78.2516 30.0627 77.8996 29.7747 77.6543 29.412C77.4089 29.0387 77.2863 28.612 77.2863 28.132C77.2863 27.6947 77.3876 27.3 77.5903 26.948C77.8036 26.5853 78.1449 26.2973 78.6143 26.084C79.0943 25.86 79.7343 25.748 80.5343 25.748H83.4303V26.596H80.5663C79.7556 26.596 79.1903 26.74 78.8703 27.028C78.5609 27.316 78.4062 27.6733 78.4062 28.1C78.4062 28.58 78.5929 28.964 78.9663 29.252C79.3396 29.54 79.8623 29.684 80.5343 29.684C81.1743 29.684 81.7236 29.54 82.1823 29.252C82.6516 28.9533 82.9929 28.5267 83.2063 27.972L83.4623 28.756C83.2489 29.3107 82.8756 29.7533 82.3423 30.084C81.8196 30.4147 81.1583 30.58 80.3583 30.58ZM97.9238 22.02C98.6064 22.02 99.1984 22.1533 99.6998 22.42C100.212 22.676 100.606 23.0707 100.884 23.604C101.172 24.1373 101.316 24.8093 101.316 25.62V30.5H100.18V25.732C100.18 24.8467 99.9664 24.18 99.5398 23.732C99.1238 23.2733 98.5318 23.044 97.7638 23.044C97.1878 23.044 96.6864 23.1667 96.2598 23.412C95.8438 23.6467 95.5184 23.9933 95.2838 24.452C95.0598 24.9 94.9478 25.444 94.9478 26.084V30.5H93.8118V25.732C93.8118 24.8467 93.5984 24.18 93.1718 23.732C92.7451 23.2733 92.1478 23.044 91.3798 23.044C90.8144 23.044 90.3184 23.1667 89.8918 23.412C89.4651 23.6467 89.1344 23.9933 88.8998 24.452C88.6758 24.9 88.5638 25.444 88.5638 26.084V30.5H87.4278V22.1H88.5158V24.372L88.3398 23.972C88.5958 23.364 89.0064 22.8893 89.5718 22.548C90.1478 22.196 90.8251 22.02 91.6038 22.02C92.4251 22.02 93.1238 22.228 93.6998 22.644C94.2758 23.0493 94.6491 23.6627 94.8198 24.484L94.3718 24.308C94.6171 23.6253 95.0491 23.076 95.6678 22.66C96.2971 22.2333 97.0491 22.02 97.9238 22.02ZM107.965 30.58C107.09 30.58 106.322 30.3987 105.661 30.036C104.999 29.6627 104.482 29.156 104.109 28.516C103.735 27.8653 103.549 27.124 103.549 26.292C103.549 25.46 103.725 24.724 104.077 24.084C104.439 23.444 104.93 22.9427 105.549 22.58C106.178 22.2067 106.882 22.02 107.661 22.02C108.45 22.02 109.149 22.2013 109.757 22.564C110.375 22.916 110.861 23.4173 111.213 24.068C111.565 24.708 111.741 25.4493 111.741 26.292C111.741 26.3453 111.735 26.404 111.725 26.468C111.725 26.5213 111.725 26.58 111.725 26.644H104.413V25.796H111.117L110.669 26.132C110.669 25.524 110.535 24.9853 110.269 24.516C110.013 24.036 109.661 23.6627 109.213 23.396C108.765 23.1293 108.247 22.996 107.661 22.996C107.085 22.996 106.567 23.1293 106.109 23.396C105.65 23.6627 105.293 24.036 105.037 24.516C104.781 24.996 104.653 25.5453 104.653 26.164V26.34C104.653 26.98 104.791 27.5453 105.069 28.036C105.357 28.516 105.751 28.8947 106.253 29.172C106.765 29.4387 107.346 29.572 107.997 29.572C108.509 29.572 108.983 29.4813 109.421 29.3C109.869 29.1187 110.253 28.8413 110.573 28.468L111.213 29.204C110.839 29.652 110.37 29.9933 109.805 30.228C109.25 30.4627 108.637 30.58 107.965 30.58Z" fill="black"/>
</svg>
