<svg width="617" height="59" viewBox="0 0 617 59" fill="none" xmlns="http://www.w3.org/2000/svg">
<rect x="0.5" y="9.5" width="616" height="49" rx="9.5" fill="white"/>
<rect x="0.5" y="9.5" width="616" height="49" rx="9.5" stroke="#FF5959"/>
<rect width="88" height="19" transform="translate(19)" fill="url(#paint0_linear_397_2109)"/>
<path d="M23.496 15V10.84L23.768 11.576L19.016 3.8H20.28L24.456 10.632H23.784L27.96 3.8H29.144L24.392 11.576L24.664 10.84V15H23.496ZM33.2111 15.08C32.4005 15.08 31.6698 14.8987 31.0191 14.536C30.3791 14.1627 29.8725 13.656 29.4991 13.016C29.1258 12.3653 28.9391 11.624 28.9391 10.792C28.9391 9.94933 29.1258 9.208 29.4991 8.568C29.8725 7.928 30.3791 7.42667 31.0191 7.064C31.6591 6.70133 32.3898 6.52 33.2111 6.52C34.0431 6.52 34.7791 6.70133 35.4191 7.064C36.0698 7.42667 36.5765 7.928 36.9391 8.568C37.3125 9.208 37.4991 9.94933 37.4991 10.792C37.4991 11.624 37.3125 12.3653 36.9391 13.016C36.5765 13.656 36.0698 14.1627 35.4191 14.536C34.7685 14.8987 34.0325 15.08 33.2111 15.08ZM33.2111 14.072C33.8191 14.072 34.3578 13.9387 34.8271 13.672C35.2965 13.3947 35.6645 13.0107 35.9311 12.52C36.2085 12.0187 36.3471 11.4427 36.3471 10.792C36.3471 10.1307 36.2085 9.55467 35.9311 9.064C35.6645 8.57333 35.2965 8.19467 34.8271 7.928C34.3578 7.65067 33.8245 7.512 33.2271 7.512C32.6298 7.512 32.0965 7.65067 31.6271 7.928C31.1578 8.19467 30.7845 8.57333 30.5071 9.064C30.2298 9.55467 30.0911 10.1307 30.0911 10.792C30.0911 11.4427 30.2298 12.0187 30.5071 12.52C30.7845 13.0107 31.1578 13.3947 31.6271 13.672C32.0965 13.9387 32.6245 14.072 33.2111 14.072ZM43.2904 15.08C42.5757 15.08 41.9517 14.9467 41.4184 14.68C40.885 14.4133 40.469 14.0133 40.1704 13.48C39.8824 12.9467 39.7384 12.28 39.7384 11.48V6.6H40.8744V11.352C40.8744 12.248 41.093 12.9253 41.5304 13.384C41.9784 13.832 42.6024 14.056 43.4024 14.056C43.989 14.056 44.4957 13.9387 44.9224 13.704C45.3597 13.4587 45.6904 13.1067 45.9144 12.648C46.149 12.1893 46.2664 11.64 46.2664 11V6.6H47.4024V15H46.3144V12.696L46.4904 13.112C46.2237 13.7307 45.8077 14.216 45.2424 14.568C44.6877 14.9093 44.037 15.08 43.2904 15.08ZM50.5684 15V6.6H51.6564V8.888L51.5444 8.488C51.779 7.848 52.1737 7.36267 52.7284 7.032C53.283 6.69067 53.971 6.52 54.7924 6.52V7.624C54.7497 7.624 54.707 7.624 54.6644 7.624C54.6217 7.61333 54.579 7.608 54.5364 7.608C53.651 7.608 52.9577 7.88 52.4564 8.424C51.955 8.95733 51.7044 9.72 51.7044 10.712V15H50.5684ZM65.4658 6.52C66.1484 6.52 66.7458 6.65333 67.2578 6.92C67.7804 7.176 68.1858 7.57067 68.4738 8.104C68.7724 8.63733 68.9218 9.30933 68.9218 10.12V15H67.7858V10.232C67.7858 9.34667 67.5618 8.68 67.1138 8.232C66.6764 7.77333 66.0578 7.544 65.2578 7.544C64.6604 7.544 64.1378 7.66667 63.6898 7.912C63.2524 8.14667 62.9111 8.49333 62.6658 8.952C62.4311 9.4 62.3138 9.944 62.3138 10.584V15H61.1778V6.6H62.2658V8.904L62.0898 8.472C62.3564 7.864 62.7831 7.38933 63.3698 7.048C63.9564 6.696 64.6551 6.52 65.4658 6.52ZM77.2543 15V13.144L77.2063 12.84V9.736C77.2063 9.02133 77.0036 8.472 76.5983 8.088C76.2036 7.704 75.6116 7.512 74.8223 7.512C74.2783 7.512 73.7609 7.60267 73.2703 7.784C72.7796 7.96533 72.3636 8.20533 72.0223 8.504L71.5103 7.656C71.9369 7.29333 72.4489 7.016 73.0463 6.824C73.6436 6.62133 74.2729 6.52 74.9343 6.52C76.0223 6.52 76.8596 6.792 77.4463 7.336C78.0436 7.86933 78.3423 8.68533 78.3423 9.784V15H77.2543ZM74.3583 15.08C73.7289 15.08 73.1796 14.9787 72.7103 14.776C72.2516 14.5627 71.8996 14.2747 71.6543 13.912C71.4089 13.5387 71.2863 13.112 71.2863 12.632C71.2863 12.1947 71.3876 11.8 71.5903 11.448C71.8036 11.0853 72.1449 10.7973 72.6143 10.584C73.0943 10.36 73.7343 10.248 74.5343 10.248H77.4303V11.096H74.5663C73.7556 11.096 73.1903 11.24 72.8703 11.528C72.5609 11.816 72.4062 12.1733 72.4062 12.6C72.4062 13.08 72.5929 13.464 72.9663 13.752C73.3396 14.04 73.8623 14.184 74.5343 14.184C75.1743 14.184 75.7236 14.04 76.1823 13.752C76.6516 13.4533 76.9929 13.0267 77.2063 12.472L77.4623 13.256C77.2489 13.8107 76.8756 14.2533 76.3423 14.584C75.8196 14.9147 75.1583 15.08 74.3583 15.08ZM91.9238 6.52C92.6064 6.52 93.1984 6.65333 93.6998 6.92C94.2118 7.176 94.6064 7.57067 94.8838 8.104C95.1718 8.63733 95.3158 9.30933 95.3158 10.12V15H94.1798V10.232C94.1798 9.34667 93.9664 8.68 93.5398 8.232C93.1238 7.77333 92.5318 7.544 91.7638 7.544C91.1878 7.544 90.6864 7.66667 90.2598 7.912C89.8438 8.14667 89.5184 8.49333 89.2838 8.952C89.0598 9.4 88.9478 9.944 88.9478 10.584V15H87.8118V10.232C87.8118 9.34667 87.5984 8.68 87.1718 8.232C86.7451 7.77333 86.1478 7.544 85.3798 7.544C84.8144 7.544 84.3184 7.66667 83.8918 7.912C83.4651 8.14667 83.1344 8.49333 82.8998 8.952C82.6758 9.4 82.5638 9.944 82.5638 10.584V15H81.4278V6.6H82.5158V8.872L82.3398 8.472C82.5958 7.864 83.0064 7.38933 83.5718 7.048C84.1478 6.696 84.8251 6.52 85.6038 6.52C86.4251 6.52 87.1238 6.728 87.6998 7.144C88.2758 7.54933 88.6491 8.16267 88.8198 8.984L88.3718 8.808C88.6171 8.12533 89.0491 7.576 89.6678 7.16C90.2971 6.73333 91.0491 6.52 91.9238 6.52ZM101.965 15.08C101.09 15.08 100.322 14.8987 99.6605 14.536C98.9992 14.1627 98.4818 13.656 98.1085 13.016C97.7352 12.3653 97.5485 11.624 97.5485 10.792C97.5485 9.96 97.7245 9.224 98.0765 8.584C98.4392 7.944 98.9298 7.44267 99.5485 7.08C100.178 6.70667 100.882 6.52 101.661 6.52C102.45 6.52 103.149 6.70133 103.757 7.064C104.375 7.416 104.861 7.91733 105.213 8.568C105.565 9.208 105.741 9.94933 105.741 10.792C105.741 10.8453 105.735 10.904 105.725 10.968C105.725 11.0213 105.725 11.08 105.725 11.144H98.4125V10.296H105.117L104.669 10.632C104.669 10.024 104.535 9.48533 104.269 9.016C104.013 8.536 103.661 8.16267 103.213 7.896C102.765 7.62933 102.247 7.496 101.661 7.496C101.085 7.496 100.567 7.62933 100.109 7.896C99.6498 8.16267 99.2925 8.536 99.0365 9.016C98.7805 9.496 98.6525 10.0453 98.6525 10.664V10.84C98.6525 11.48 98.7912 12.0453 99.0685 12.536C99.3565 13.016 99.7512 13.3947 100.253 13.672C100.765 13.9387 101.346 14.072 101.997 14.072C102.509 14.072 102.983 13.9813 103.421 13.8C103.869 13.6187 104.253 13.3413 104.573 12.968L105.213 13.704C104.839 14.152 104.37 14.4933 103.805 14.728C103.25 14.9627 102.637 15.08 101.965 15.08Z" fill="black"/>
<path d="M28.056 41.196H26.6V26.78H28.056V41.196Z" fill="black"/>
<defs>
<linearGradient id="paint0_linear_397_2109" x1="44" y1="0" x2="44" y2="19" gradientUnits="userSpaceOnUse">
<stop offset="0.421875" stop-color="white" stop-opacity="0"/>
<stop offset="0.453125" stop-color="white"/>
</linearGradient>
</defs>
</svg>
